<svg width="25" height="25" viewBox="0 0 25 25" fill="none" xmlns="http://www.w3.org/2000/svg">
<g clip-path="url(#clip0_605_68)">
<path fill-rule="evenodd" clip-rule="evenodd" d="M2 2C0.314 3.686 0 5.333 0 12.5C0 24.081 0.923 25 12.548 25C20.507 25 21.264 24.818 23.548 22.354C25.752 19.976 26 18.846 26 11.187C26 6.501 25.737 2.929 25.417 3.25C25.096 3.571 23.971 2.971 22.917 1.917C21.328 0.328 19.543 0 12.5 0C5.333 0 3.686 0.314 2 2ZM4 4C1.114 6.886 1.114 18.114 4 21C6.886 23.886 18.114 23.886 21 21C23.886 18.114 23.886 6.886 21 4C18.114 1.114 6.886 1.114 4 4ZM0.355 12.5C0.352 17.45 0.521 19.601 0.731 17.28C0.94 14.959 0.943 10.909 0.736 8.28C0.53 5.651 0.358 7.55 0.355 12.5ZM18.154 5.438C18.345 6.355 18.95 7.082 19.5 7.053C20.984 6.974 20.712 4.737 19.154 4.218C18.313 3.938 17.939 4.395 18.154 5.438ZM8 8C5.443 10.557 5.443 14.443 8 17C11.961 20.961 19 18.081 19 12.5C19 9.291 15.709 6 12.5 6C11.125 6 9.1 6.9 8 8ZM10 10C7.827 12.173 8.253 14.53 11.095 16.051C13.763 17.479 17.479 13.763 16.051 11.095C14.53 8.253 12.173 7.827 10 10Z" fill="black"/>
</g>
<defs>
<clipPath id="clip0_605_68">
<rect width="25" height="25" fill="white"/>
</clipPath>
</defs>
</svg>
